<?xml version="1.0" encoding="utf-8"?>
<!-- Generator: Adobe Illustrator 21.1.0, SVG Export Plug-In . SVG Version: 6.00 Build 0)  -->
<svg version="1.1" id="Layer_1" xmlns="http://www.w3.org/2000/svg" xmlns:xlink="http://www.w3.org/1999/xlink" x="0px" y="0px"
	 viewBox="0 0 1366 768" style="enable-background:new 0 0 1366 768;" xml:space="preserve">
<style type="text/css">
	.st0{fill:#4C4C4C;}
	.st1{display:none;fill:#FFFFFF;}
</style>
<g>
	<g>
		
			<ellipse transform="matrix(0.7071 -0.7071 0.7071 0.7071 101.3938 793.4604)" class="st0" cx="1008.5" cy="274.3" rx="67.5" ry="67.5"/>
	</g>
	<ellipse transform="matrix(0.7071 -0.7071 0.7071 0.7071 46.0785 370.0035)" class="st0" cx="469.7" cy="129.4" rx="66" ry="66"/>
	<ellipse transform="matrix(0.7071 -0.7071 0.7071 0.7071 -47.9977 598.1234)" class="st0" cx="698" cy="357" rx="66" ry="66"/>
	
		<ellipse transform="matrix(0.7071 -0.7071 0.7071 0.7071 -292.9647 630.5261)" class="st0" cx="614.6" cy="668.9" rx="66" ry="66"/>
	<path class="st0" d="M733,323l-70,70l-30.5-30.5c-6.6-89.2-77.8-160.4-167-167L435,165l70-70l29.5,29.5
		c6.6,89.2,77.8,160.4,167,167L733,323z"/>
	<path class="st0" d="M744.4,371l-7.4,27.7l-3.7,13.9c-46.7,32.7-77.3,87-77.3,148.3c0,27.5,6.1,53.6,17.1,77l-11.9,44.6L565.6,657
		l11.1-41.6C625.1,582.9,657,527.7,657,465c0-28.8-6.7-56.1-18.7-80.3c0,0,0,0,0,0l3.5-13l7-26.3l48.7,13l0,0L744.4,371z"/>
	<path class="st0" d="M1021.5,321.6l-45.2,12.3c0,0,0,0,0,0C953.2,323,927.3,317,900,317c-61.6,0-116.1,30.8-148.7,77.8l-14.3,3.9
		l-26.7,7.2l-12.9-47.4l0,0l-13-48.1l28.3-7.7l15.7-4.2c23,10.6,48.6,16.5,75.6,16.5c61.3,0,115.5-30.5,148.3-77.2l43.4-11.8
		L1021.5,321.6z"/>
</g>
<path class="st1" d="M633,374.9c-31.3-54.3-89.9-90.9-157-90.9c-100,0-181,81-181,181v1.1c-15.3-26.5-24-57.3-24-90.1
	c0-100,81-181,181-181c4.5,0,9,0.2,13.5,0.5l167,167C632.8,366.6,633,370.7,633,374.9z"/>
<path class="st1" d="M896,111c0,99.8-80.7,180.7-180.4,181H715c-4.5,0-9-0.2-13.5-0.5l-167-167c-0.3-4.5-0.5-9-0.5-13.5
	c0-100,81-181,181-181c32.1,0,62.2,8.3,88.4,23C858.6-16,896,43.1,896,111z"/>
<path class="st1" d="M985,134c0,38.6-12.1,74.4-32.7,103.8l-223.9,60.7c-4.3-2-8.6-4.2-12.8-6.5c-55.3-31-92.6-90.1-92.6-158
	c0-99.8,80.7-180.7,180.4-181h0.6C904-47,985,34,985,134z"/>
<path class="st1" d="M633,374.9v1.1c0,100-81,181-181,181c-67.1,0-125.8-36.6-157-90.9V465c0-100,81-181,181-181
	C543.1,284,601.8,320.6,633,374.9z"/>
<path class="st1" d="M638.3,384.7C638.3,384.7,638.3,384.7,638.3,384.7l-61.6,230.7C547.9,634.7,513.3,646,476,646
	c-99.6,0-180.4-80.4-181-179.9c31.3,54.3,89.9,90.9,157,90.9c100,0,181-81,181-181v-1.1C634.8,378.1,636.6,381.4,638.3,384.7z"/>
<path class="st1" d="M1018,561c0,33.8-9.3,65.5-25.4,92.6c0,0,0,0,0,0C961,706.5,903.1,742,837,742c-72.4,0-134.9-42.5-163.9-104
	l60.1-225.3c3.6-2.5,7.3-5,11.1-7.2c0,0,0,0,0,0c27.1-16.2,58.7-25.4,92.6-25.4C937,380,1018,461,1018,561z"/>
<path class="st1" d="M1081,498c0,66.1-35.5,124-88.4,155.6C965.5,669.7,933.8,679,900,679c-100,0-181-81-181-181
	c0-33.8,9.3-65.5,25.4-92.6c2.2-3.6,4.4-7.1,6.8-10.6l225.1-61c0,0,0,0,0,0C1038.2,362.7,1081,425.3,1081,498z"/>
</svg>
