<?xml version="1.0" encoding="utf-8"?>
<!-- Generator: Adobe Illustrator 21.1.0, SVG Export Plug-In . SVG Version: 6.00 Build 0)  -->
<svg version="1.1" id="Layer_1" xmlns="http://www.w3.org/2000/svg" xmlns:xlink="http://www.w3.org/1999/xlink" x="0px" y="0px"
	 viewBox="0 0 792 612" style="enable-background:new 0 0 792 612;" xml:space="preserve">
<style type="text/css">
	.st0{fill:#2264DC;}
	.st1{font-family:'SourceSansPro-Regular';}
	.st2{font-size:224.0479px;}
	.st3{letter-spacing:16;}
	.st4{fill:#2264DC;stroke:#2264DC;stroke-width:5;stroke-miterlimit:10;}
</style>
<text transform="matrix(1 0 0 1 1.464844e-03 376.6379)" class="st0 st1 st2 st3">P   LLIA</text>
<path class="st4" d="M231.1,372.9c-38.6-0.5-68.8-30.3-68.7-68.9c0-38.5,30.2-68.7,68.7-68.7c38.6,0,68.8,30.3,68.7,68.9
	C299.7,342.7,269.7,372.4,231.1,372.9z M231.1,242.9c-33.7,0-61.2,27.3-61.2,61c-0.1,33.9,27.2,61.4,61.1,61.4
	c33.7,0.1,61.2-27.3,61.3-60.9C292.4,270.4,265.1,242.9,231.1,242.9z"/>
<path class="st0" d="M255.3,262.4c-0.4,2-0.7,3.8-1,5.6c-1.7,9.3-3.4,18.6-5.2,27.9c-1,5.5-2,10.9-3,16.4c0,0.3-0.2,0.5-0.4,0.7
	c-9.4,8.1-18.9,16.1-28.3,24.2c-3.2,2.8-6.5,5.5-9.7,8.3c-0.1,0.1-0.3,0.2-0.6,0.4c0.2-1.2,0.4-2.3,0.6-3.3
	c2.9-15.5,5.7-31,8.6-46.6c0.1-0.3,0.3-0.6,0.5-0.8c7.3-6.2,14.6-12.5,21.9-18.7c5.4-4.6,10.8-9.2,16.1-13.8
	C254.9,262.7,255,262.6,255.3,262.4z M212.7,335.9c0,0,0.1,0.1,0.1,0.1c9.9-8.4,19.8-16.8,29.7-25.2c-7.6-4.4-15.1-8.7-22.7-13.1
	C217.4,310.5,215.1,323.2,212.7,335.9z"/>
</svg>
